<svg width="1440" height="60" viewBox="0 0 1440 60" fill="none" xmlns="http://www.w3.org/2000/svg">
<path d="M402.5 2H435.5L354 60H321L402.5 2Z" fill="#F9C9DE"/>
<path d="M402.5 2H435.5L354 60H321L402.5 2Z" fill="#F9C9DE"/>
<path d="M369.5 2H402.5L321 60H288L369.5 2Z" fill="#8ACEEC"/>
<path d="M336.5 2H369.5L288 60H255L336.5 2Z" fill="#AED3A1"/>
<path d="M435.5 2H468.5L387 60H354L435.5 2Z" fill="#FFF8A1"/>
<path d="M534.5 2H567.5L486 60H453L534.5 2Z" fill="#F9C9DE"/>
<path d="M534.5 2H567.5L486 60H453L534.5 2Z" fill="#F9C9DE"/>
<path d="M501.5 2H534.5L453 60H420L501.5 2Z" fill="#8ACEEC"/>
<path d="M468.5 2H501.5L420 60H387L468.5 2Z" fill="#AED3A1"/>
<path d="M567.5 2H600.5L519 60H486L567.5 2Z" fill="#FFF8A1"/>
<path d="M666.5 2H699.5L618 60H585L666.5 2Z" fill="#F9C9DE"/>
<path d="M666.5 2H699.5L618 60H585L666.5 2Z" fill="#F9C9DE"/>
<path d="M633.5 2H666.5L585 60H552L633.5 2Z" fill="#8ACEEC"/>
<path d="M600.5 2H633.5L552 60H519L600.5 2Z" fill="#AED3A1"/>
<path d="M699.5 2H732.5L651 60H618L699.5 2Z" fill="#FFF8A1"/>
<path d="M798.5 2H831.5L750 60H717L798.5 2Z" fill="#F9C9DE"/>
<path d="M798.5 2H831.5L750 60H717L798.5 2Z" fill="#F9C9DE"/>
<path d="M765.5 2H798.5L717 60H684L765.5 2Z" fill="#8ACEEC"/>
<path d="M732.5 2H765.5L684 60H651L732.5 2Z" fill="#AED3A1"/>
<path d="M831.5 2H864.5L783 60H750L831.5 2Z" fill="#FFF8A1"/>
<path d="M930.5 2H963.5L882 60H849L930.5 2Z" fill="#F9C9DE"/>
<path d="M930.5 2H963.5L882 60H849L930.5 2Z" fill="#F9C9DE"/>
<path d="M897.5 2H930.5L849 60H816L897.5 2Z" fill="#8ACEEC"/>
<path d="M864.5 2H897.5L816 60H783L864.5 2Z" fill="#AED3A1"/>
<path d="M963.5 2H996.5L915 60H882L963.5 2Z" fill="#FFF8A1"/>
<path d="M1062.5 2H1095.5L1014 60H981L1062.5 2Z" fill="#F9C9DE"/>
<path d="M1062.5 2H1095.5L1014 60H981L1062.5 2Z" fill="#F9C9DE"/>
<path d="M1029.5 2H1062.5L981 60H948L1029.5 2Z" fill="#8ACEEC"/>
<path d="M996.5 2H1029.5L948 60H915L996.5 2Z" fill="#AED3A1"/>
<path d="M1095.5 2H1128.5L1047 60H1014L1095.5 2Z" fill="#FFF8A1"/>
<path d="M1194.5 2H1227.5L1146 60H1113L1194.5 2Z" fill="#F9C9DE"/>
<path d="M1194.5 2H1227.5L1146 60H1113L1194.5 2Z" fill="#F9C9DE"/>
<path d="M1161.5 2H1194.5L1113 60H1080L1161.5 2Z" fill="#8ACEEC"/>
<path d="M1128.5 2H1161.5L1080 60H1047L1128.5 2Z" fill="#AED3A1"/>
<path d="M1227.5 2H1260.5L1179 60H1146L1227.5 2Z" fill="#FFF8A1"/>
<path d="M6.5 2H39.5L-42 60H-75L6.5 2Z" fill="#F9C9DE"/>
<path d="M6.5 2H39.5L-42 60H-75L6.5 2Z" fill="#F9C9DE"/>
<path d="M39.5 2H72.5L-9 60H-42L39.5 2Z" fill="#FFF8A1"/>
<path d="M138.5 2H171.5L90 60H57L138.5 2Z" fill="#F9C9DE"/>
<path d="M138.5 2H171.5L90 60H57L138.5 2Z" fill="#F9C9DE"/>
<path d="M105.5 2H138.5L57 60H24L105.5 2Z" fill="#8ACEEC"/>
<path d="M72.5 2H105.5L24 60H-9L72.5 2Z" fill="#AED3A1"/>
<path d="M171.5 2H204.5L123 60H90L171.5 2Z" fill="#FFF8A1"/>
<path d="M270.5 2H303.5L222 60H189L270.5 2Z" fill="#F9C9DE"/>
<path d="M270.5 2H303.5L222 60H189L270.5 2Z" fill="#F9C9DE"/>
<path d="M237.5 2H270.5L189 60H156L237.5 2Z" fill="#8ACEEC"/>
<path d="M204.5 2H237.5L156 60H123L204.5 2Z" fill="#AED3A1"/>
<path d="M303.5 2H336.5L255 60H222L303.5 2Z" fill="#FFF8A1"/>
<path d="M1326.5 2H1359.5L1278 60H1245L1326.5 2Z" fill="#F9C9DE"/>
<path d="M1326.5 2H1359.5L1278 60H1245L1326.5 2Z" fill="#F9C9DE"/>
<path d="M1293.5 2H1326.5L1245 60H1212L1293.5 2Z" fill="#8ACEEC"/>
<path d="M1260.5 2H1293.5L1212 60H1179L1260.5 2Z" fill="#AED3A1"/>
<path d="M1359.5 2H1392.5L1311 60H1278L1359.5 2Z" fill="#FFF8A1"/>
<path d="M1458.5 2H1491.5L1410 60H1377L1458.5 2Z" fill="#F9C9DE"/>
<path d="M1458.5 2H1491.5L1410 60H1377L1458.5 2Z" fill="#F9C9DE"/>
<path d="M1425.5 2H1458.5L1377 60H1344L1425.5 2Z" fill="#8ACEEC"/>
<path d="M1392.5 2H1425.5L1344 60H1311L1392.5 2Z" fill="#AED3A1"/>
<path d="M1491.5 2H1524.5L1443 60H1410L1491.5 2Z" fill="#FFF8A1"/>
</svg>
