<svg width="1509" height="66" viewBox="0 0 1509 66" fill="none" xmlns="http://www.w3.org/2000/svg">
<mask id="path-1-inside-1_126_170" fill="white">
<path d="M30 0H1470V66H30V0Z"/>
</mask>
<path d="M30 0H1470V66H30V0Z" fill="white"/>
<path d="M1470 63H30V69H1470V63Z" fill="#F3ECE9" fill-opacity="0.69" mask="url(#path-1-inside-1_126_170)"/>
<mask id="path-3-inside-2_126_170" fill="white">
<path d="M20 0H1460V66H20V0Z"/>
</mask>
<path d="M20 0H1460V66H20V0Z" fill="white"/>
<path d="M1460 63H20V69H1460V63Z" fill="#F3ECE9" fill-opacity="0.69" mask="url(#path-3-inside-2_126_170)"/>
<path d="M85 0H116L92 66H61L85 0Z" fill="#F9C9DE"/>
<path d="M146.5 0H177.5L154 66H123L146.5 0Z" fill="#AED3A1"/>
<path d="M116 0H147L123 66H92L116 0Z" fill="#8ACEEC"/>
<path d="M54 0H85L61 66H30L54 0Z" fill="#FFF8A1"/>
<path d="M208 0H239L215 66H184L208 0Z" fill="#F9C9DE"/>
<path d="M269.5 0H300.5L277 66H246L269.5 0Z" fill="#AED3A1"/>
<path d="M239 0H270L246 66H215L239 0Z" fill="#8ACEEC"/>
<path d="M177 0H208L184 66H153L177 0Z" fill="#FFF8A1"/>
<path d="M332 0H363L339 66H308L332 0Z" fill="#F9C9DE"/>
<path d="M393.5 0H424.5L401 66H370L393.5 0Z" fill="#AED3A1"/>
<path d="M23.5 0H54.5L31 66H0L23.5 0Z" fill="#AED3A1"/>
<path d="M363 0H394L370 66H339L363 0Z" fill="#8ACEEC"/>
<path d="M301 0H332L308 66H277L301 0Z" fill="#FFF8A1"/>
<path d="M455 0H486L462 66H431L455 0Z" fill="#F9C9DE"/>
<path d="M516.5 0H547.5L524 66H493L516.5 0Z" fill="#AED3A1"/>
<path d="M486 0H517L493 66H462L486 0Z" fill="#8ACEEC"/>
<path d="M424 0H455L431 66H400L424 0Z" fill="#FFF8A1"/>
<path d="M579 0H610L586 66H555L579 0Z" fill="#F9C9DE"/>
<path d="M640.5 0H671.5L648 66H617L640.5 0Z" fill="#AED3A1"/>
<path d="M610 0H641L617 66H586L610 0Z" fill="#8ACEEC"/>
<path d="M548 0H579L555 66H524L548 0Z" fill="#FFF8A1"/>
<path d="M703 0H734L710 66H679L703 0Z" fill="#F9C9DE"/>
<path d="M764.5 0H795.5L772 66H741L764.5 0Z" fill="#AED3A1"/>
<path d="M734 0H765L741 66H710L734 0Z" fill="#8ACEEC"/>
<path d="M672 0H703L679 66H648L672 0Z" fill="#FFF8A1"/>
<path d="M827 0H858L834 66H803L827 0Z" fill="#F9C9DE"/>
<path d="M888.5 0H919.5L896 66H865L888.5 0Z" fill="#AED3A1"/>
<path d="M858 0H889L865 66H834L858 0Z" fill="#8ACEEC"/>
<path d="M796 0H827L803 66H772L796 0Z" fill="#FFF8A1"/>
<rect x="1456" width="31" height="66" fill="#8ACEEC"/>
<path d="M950 0H981L957 66H926L950 0Z" fill="#F9C9DE"/>
<path d="M1011.5 0H1042.5L1019 66H988L1011.5 0Z" fill="#AED3A1"/>
<path d="M981 0H1012L988 66H957L981 0Z" fill="#8ACEEC"/>
<path d="M919 0H950L926 66H895L919 0Z" fill="#FFF8A1"/>
<path d="M1074 0H1105L1081 66H1050L1074 0Z" fill="#F9C9DE"/>
<path d="M1135.5 0H1166.5L1143 66H1112L1135.5 0Z" fill="#AED3A1"/>
<path d="M1105 0H1136L1112 66H1081L1105 0Z" fill="#8ACEEC"/>
<path d="M1043 0H1074L1050 66H1019L1043 0Z" fill="#FFF8A1"/>
<path d="M1198 0H1229L1205 66H1174L1198 0Z" fill="#F9C9DE"/>
<path d="M1259.5 0H1290.5L1267 66H1236L1259.5 0Z" fill="#AED3A1"/>
<path d="M1229 0H1260L1236 66H1205L1229 0Z" fill="#8ACEEC"/>
<path d="M1167 0H1198L1174 66H1143L1167 0Z" fill="#FFF8A1"/>
<path d="M1322 0H1353L1329 66H1298L1322 0Z" fill="#F9C9DE"/>
<path d="M1383.5 0H1414.5L1391 66H1360L1383.5 0Z" fill="#AED3A1"/>
<path d="M1353 0H1384L1360 66H1329L1353 0Z" fill="#8ACEEC"/>
<path d="M1291 0H1322L1298 66H1267L1291 0Z" fill="#FFF8A1"/>
<path d="M1447 0H1478L1454 66H1423L1447 0Z" fill="#F9C9DE"/>
<path d="M1478 0H1509L1485 66H1454L1478 0Z" fill="#8ACEEC"/>
<path d="M1416 0H1447L1423 66H1392L1416 0Z" fill="#FFF8A1"/>
</svg>
